<svg xmlns="http://www.w3.org/2000/svg" viewBox="0 0 64 64">
  <defs>
    <linearGradient id="g" x1="10" y1="8" x2="54" y2="56" gradientUnits="userSpaceOnUse">
      <stop stop-color="#6366f1"/>
      <stop offset="1" stop-color="#2dd4bf"/>
    </linearGradient>
  </defs>
  <rect width="64" height="64" rx="14" fill="#020617"/>
  <rect x="8" y="8" width="48" height="48" rx="12" fill="url(#g)"/>
  <path d="M22 41c2.6 2.1 6.1 3.2 10.3 3.2 6.5 0 10.7-3 10.7-7.8 0-4.1-2.5-6.3-8.2-7.5l-4.3-.9c-2.6-.5-3.8-1.4-3.8-2.8 0-1.7 1.7-2.8 4.5-2.8 2.9 0 5.6.9 8 2.5l2.4-5.1c-2.6-1.8-6.1-2.8-10.2-2.8-6.2 0-10.3 3.1-10.3 7.8 0 4 2.5 6.2 8 7.3l4.3.9c2.8.6 4 1.5 4 3 0 1.8-1.9 2.8-5 2.8-3.2 0-6.1-1-8.6-3.1L22 41Z" fill="white"/>
</svg>
